<mxfile host="app.diagrams.net" modified="2024-04-15T03:02:17.521Z" agent="Mozilla/5.0 (Macintosh; Intel Mac OS X 10_15_7) AppleWebKit/537.36 (KHTML, like Gecko) Chrome/123.0.0.0 Safari/537.36" etag="6MZf6PmnBVwQIkrVTd2q" version="22.1.16" type="github">
  <diagram id="C5RBs43oDa-KdzZeNtuy" name="Page-1">
    <mxGraphModel dx="1513" dy="1065" grid="1" gridSize="10" guides="1" tooltips="1" connect="1" arrows="1" fold="1" page="1" pageScale="1" pageWidth="1654" pageHeight="2336" math="0" shadow="0">
      <root>
        <mxCell id="WIyWlLk6GJQsqaUBKTNV-0" />
        <mxCell id="WIyWlLk6GJQsqaUBKTNV-1" parent="WIyWlLk6GJQsqaUBKTNV-0" />
        <mxCell id="7XeFvgjpTkcl1byy3WGT-4" style="edgeStyle=orthogonalEdgeStyle;rounded=0;orthogonalLoop=1;jettySize=auto;html=1;exitX=0.5;exitY=1;exitDx=0;exitDy=0;entryX=0.5;entryY=0;entryDx=0;entryDy=0;" edge="1" parent="WIyWlLk6GJQsqaUBKTNV-1" source="7XeFvgjpTkcl1byy3WGT-1" target="7XeFvgjpTkcl1byy3WGT-3">
          <mxGeometry relative="1" as="geometry" />
        </mxCell>
        <mxCell id="7XeFvgjpTkcl1byy3WGT-1" value="算法开始" style="rounded=1;whiteSpace=wrap;html=1;" vertex="1" parent="WIyWlLk6GJQsqaUBKTNV-1">
          <mxGeometry x="430" y="80" width="120" height="60" as="geometry" />
        </mxCell>
        <mxCell id="7XeFvgjpTkcl1byy3WGT-2" value="算法结束" style="rounded=1;whiteSpace=wrap;html=1;" vertex="1" parent="WIyWlLk6GJQsqaUBKTNV-1">
          <mxGeometry x="430" y="560" width="120" height="60" as="geometry" />
        </mxCell>
        <mxCell id="7XeFvgjpTkcl1byy3WGT-6" style="edgeStyle=orthogonalEdgeStyle;rounded=0;orthogonalLoop=1;jettySize=auto;html=1;exitX=0.5;exitY=1;exitDx=0;exitDy=0;entryX=0.5;entryY=0;entryDx=0;entryDy=0;" edge="1" parent="WIyWlLk6GJQsqaUBKTNV-1" source="7XeFvgjpTkcl1byy3WGT-3" target="7XeFvgjpTkcl1byy3WGT-5">
          <mxGeometry relative="1" as="geometry" />
        </mxCell>
        <mxCell id="7XeFvgjpTkcl1byy3WGT-3" value="接收输入文件&lt;br&gt;与配置文件" style="shape=parallelogram;perimeter=parallelogramPerimeter;whiteSpace=wrap;html=1;fixedSize=1;" vertex="1" parent="WIyWlLk6GJQsqaUBKTNV-1">
          <mxGeometry x="430" y="190" width="120" height="60" as="geometry" />
        </mxCell>
        <mxCell id="7XeFvgjpTkcl1byy3WGT-8" style="edgeStyle=orthogonalEdgeStyle;rounded=0;orthogonalLoop=1;jettySize=auto;html=1;exitX=0.5;exitY=1;exitDx=0;exitDy=0;entryX=0.5;entryY=0;entryDx=0;entryDy=0;" edge="1" parent="WIyWlLk6GJQsqaUBKTNV-1" source="7XeFvgjpTkcl1byy3WGT-5" target="7XeFvgjpTkcl1byy3WGT-7">
          <mxGeometry relative="1" as="geometry" />
        </mxCell>
        <mxCell id="7XeFvgjpTkcl1byy3WGT-5" value="处理链计算" style="rounded=0;whiteSpace=wrap;html=1;" vertex="1" parent="WIyWlLk6GJQsqaUBKTNV-1">
          <mxGeometry x="340" y="330" width="120" height="60" as="geometry" />
        </mxCell>
        <mxCell id="7XeFvgjpTkcl1byy3WGT-15" style="edgeStyle=orthogonalEdgeStyle;rounded=0;orthogonalLoop=1;jettySize=auto;html=1;exitX=0.5;exitY=1;exitDx=0;exitDy=0;entryX=0.5;entryY=0;entryDx=0;entryDy=0;" edge="1" parent="WIyWlLk6GJQsqaUBKTNV-1" source="7XeFvgjpTkcl1byy3WGT-7" target="7XeFvgjpTkcl1byy3WGT-10">
          <mxGeometry relative="1" as="geometry" />
        </mxCell>
        <mxCell id="7XeFvgjpTkcl1byy3WGT-7" value="输出第一级&lt;br&gt;成图JSON" style="shape=parallelogram;perimeter=parallelogramPerimeter;whiteSpace=wrap;html=1;fixedSize=1;" vertex="1" parent="WIyWlLk6GJQsqaUBKTNV-1">
          <mxGeometry x="340" y="440" width="120" height="60" as="geometry" />
        </mxCell>
        <mxCell id="7XeFvgjpTkcl1byy3WGT-14" style="edgeStyle=orthogonalEdgeStyle;rounded=0;orthogonalLoop=1;jettySize=auto;html=1;exitX=0.5;exitY=1;exitDx=0;exitDy=0;entryX=0.5;entryY=0;entryDx=0;entryDy=0;" edge="1" parent="WIyWlLk6GJQsqaUBKTNV-1" source="7XeFvgjpTkcl1byy3WGT-10" target="7XeFvgjpTkcl1byy3WGT-11">
          <mxGeometry relative="1" as="geometry" />
        </mxCell>
        <mxCell id="7XeFvgjpTkcl1byy3WGT-10" value="处理链计算" style="rounded=0;whiteSpace=wrap;html=1;" vertex="1" parent="WIyWlLk6GJQsqaUBKTNV-1">
          <mxGeometry x="520" y="330" width="120" height="60" as="geometry" />
        </mxCell>
        <mxCell id="7XeFvgjpTkcl1byy3WGT-16" style="edgeStyle=orthogonalEdgeStyle;rounded=0;orthogonalLoop=1;jettySize=auto;html=1;exitX=0.5;exitY=1;exitDx=0;exitDy=0;entryX=0.5;entryY=0;entryDx=0;entryDy=0;" edge="1" parent="WIyWlLk6GJQsqaUBKTNV-1" source="7XeFvgjpTkcl1byy3WGT-11" target="7XeFvgjpTkcl1byy3WGT-2">
          <mxGeometry relative="1" as="geometry" />
        </mxCell>
        <mxCell id="7XeFvgjpTkcl1byy3WGT-11" value="输出第二级&lt;br&gt;成图JSON" style="shape=parallelogram;perimeter=parallelogramPerimeter;whiteSpace=wrap;html=1;fixedSize=1;" vertex="1" parent="WIyWlLk6GJQsqaUBKTNV-1">
          <mxGeometry x="520" y="440" width="120" height="60" as="geometry" />
        </mxCell>
        <mxCell id="7XeFvgjpTkcl1byy3WGT-18" value="第一级算法开始" style="rounded=1;whiteSpace=wrap;html=1;" vertex="1" parent="WIyWlLk6GJQsqaUBKTNV-1">
          <mxGeometry x="70" y="950" width="120" height="60" as="geometry" />
        </mxCell>
        <mxCell id="7XeFvgjpTkcl1byy3WGT-19" value="算法结束" style="rounded=1;whiteSpace=wrap;html=1;" vertex="1" parent="WIyWlLk6GJQsqaUBKTNV-1">
          <mxGeometry x="1160" y="950" width="120" height="60" as="geometry" />
        </mxCell>
        <mxCell id="7XeFvgjpTkcl1byy3WGT-42" style="edgeStyle=orthogonalEdgeStyle;rounded=0;orthogonalLoop=1;jettySize=auto;html=1;exitX=0.5;exitY=0;exitDx=0;exitDy=0;entryX=0;entryY=0.5;entryDx=0;entryDy=0;" edge="1" parent="WIyWlLk6GJQsqaUBKTNV-1" source="7XeFvgjpTkcl1byy3WGT-21" target="7XeFvgjpTkcl1byy3WGT-23">
          <mxGeometry relative="1" as="geometry" />
        </mxCell>
        <mxCell id="7XeFvgjpTkcl1byy3WGT-21" value="接收输入文件&lt;br&gt;与配置文件" style="shape=parallelogram;perimeter=parallelogramPerimeter;whiteSpace=wrap;html=1;fixedSize=1;" vertex="1" parent="WIyWlLk6GJQsqaUBKTNV-1">
          <mxGeometry x="270" y="950" width="120" height="60" as="geometry" />
        </mxCell>
        <mxCell id="7XeFvgjpTkcl1byy3WGT-43" style="edgeStyle=orthogonalEdgeStyle;rounded=0;orthogonalLoop=1;jettySize=auto;html=1;exitX=0.5;exitY=1;exitDx=0;exitDy=0;entryX=0.5;entryY=0;entryDx=0;entryDy=0;" edge="1" parent="WIyWlLk6GJQsqaUBKTNV-1" source="7XeFvgjpTkcl1byy3WGT-23" target="7XeFvgjpTkcl1byy3WGT-34">
          <mxGeometry relative="1" as="geometry" />
        </mxCell>
        <mxCell id="7XeFvgjpTkcl1byy3WGT-23" value="解析电网设备&lt;br&gt;和配置信息&lt;span style=&quot;font-size: medium; text-align: start;&quot;&gt;&lt;/span&gt;" style="rounded=0;whiteSpace=wrap;html=1;" vertex="1" parent="WIyWlLk6GJQsqaUBKTNV-1">
          <mxGeometry x="440" y="770" width="120" height="60" as="geometry" />
        </mxCell>
        <mxCell id="7XeFvgjpTkcl1byy3WGT-55" style="edgeStyle=orthogonalEdgeStyle;rounded=0;orthogonalLoop=1;jettySize=auto;html=1;exitX=1;exitY=0.5;exitDx=0;exitDy=0;" edge="1" parent="WIyWlLk6GJQsqaUBKTNV-1" source="7XeFvgjpTkcl1byy3WGT-25" target="7XeFvgjpTkcl1byy3WGT-19">
          <mxGeometry relative="1" as="geometry" />
        </mxCell>
        <mxCell id="7XeFvgjpTkcl1byy3WGT-25" value="输出第一级&lt;br&gt;成图JSON" style="shape=parallelogram;perimeter=parallelogramPerimeter;whiteSpace=wrap;html=1;fixedSize=1;" vertex="1" parent="WIyWlLk6GJQsqaUBKTNV-1">
          <mxGeometry x="940" y="950" width="120" height="60" as="geometry" />
        </mxCell>
        <mxCell id="7XeFvgjpTkcl1byy3WGT-48" style="edgeStyle=orthogonalEdgeStyle;rounded=0;orthogonalLoop=1;jettySize=auto;html=1;exitX=1;exitY=0.5;exitDx=0;exitDy=0;entryX=0;entryY=0.5;entryDx=0;entryDy=0;" edge="1" parent="WIyWlLk6GJQsqaUBKTNV-1" source="7XeFvgjpTkcl1byy3WGT-30" target="7XeFvgjpTkcl1byy3WGT-37">
          <mxGeometry relative="1" as="geometry" />
        </mxCell>
        <mxCell id="7XeFvgjpTkcl1byy3WGT-30" value="线路走向布局&lt;span style=&quot;font-size: medium; text-align: start;&quot;&gt;&lt;/span&gt;" style="rounded=0;whiteSpace=wrap;html=1;" vertex="1" parent="WIyWlLk6GJQsqaUBKTNV-1">
          <mxGeometry x="440" y="1130" width="120" height="60" as="geometry" />
        </mxCell>
        <mxCell id="7XeFvgjpTkcl1byy3WGT-51" style="edgeStyle=orthogonalEdgeStyle;rounded=0;orthogonalLoop=1;jettySize=auto;html=1;exitX=0.5;exitY=0;exitDx=0;exitDy=0;entryX=0.5;entryY=1;entryDx=0;entryDy=0;" edge="1" parent="WIyWlLk6GJQsqaUBKTNV-1" source="7XeFvgjpTkcl1byy3WGT-31" target="7XeFvgjpTkcl1byy3WGT-38">
          <mxGeometry relative="1" as="geometry" />
        </mxCell>
        <mxCell id="7XeFvgjpTkcl1byy3WGT-31" value="锚点设置&lt;span style=&quot;font-size: medium; text-align: start;&quot;&gt;&lt;/span&gt;" style="rounded=0;whiteSpace=wrap;html=1;" vertex="1" parent="WIyWlLk6GJQsqaUBKTNV-1">
          <mxGeometry x="600" y="950" width="120" height="60" as="geometry" />
        </mxCell>
        <mxCell id="7XeFvgjpTkcl1byy3WGT-47" style="edgeStyle=orthogonalEdgeStyle;rounded=0;orthogonalLoop=1;jettySize=auto;html=1;exitX=0.5;exitY=1;exitDx=0;exitDy=0;entryX=0.5;entryY=0;entryDx=0;entryDy=0;" edge="1" parent="WIyWlLk6GJQsqaUBKTNV-1" source="7XeFvgjpTkcl1byy3WGT-32" target="7XeFvgjpTkcl1byy3WGT-30">
          <mxGeometry relative="1" as="geometry" />
        </mxCell>
        <mxCell id="7XeFvgjpTkcl1byy3WGT-32" value="变电站位置计算&lt;span style=&quot;font-size: medium; text-align: start;&quot;&gt;&lt;/span&gt;" style="rounded=0;whiteSpace=wrap;html=1;" vertex="1" parent="WIyWlLk6GJQsqaUBKTNV-1">
          <mxGeometry x="440" y="1040" width="120" height="60" as="geometry" />
        </mxCell>
        <mxCell id="7XeFvgjpTkcl1byy3WGT-45" style="edgeStyle=orthogonalEdgeStyle;rounded=0;orthogonalLoop=1;jettySize=auto;html=1;exitX=0.5;exitY=1;exitDx=0;exitDy=0;" edge="1" parent="WIyWlLk6GJQsqaUBKTNV-1" source="7XeFvgjpTkcl1byy3WGT-33" target="7XeFvgjpTkcl1byy3WGT-32">
          <mxGeometry relative="1" as="geometry" />
        </mxCell>
        <mxCell id="7XeFvgjpTkcl1byy3WGT-33" value="母线与站内开关定位&lt;span style=&quot;font-size: medium; text-align: start;&quot;&gt;&lt;/span&gt;" style="rounded=0;whiteSpace=wrap;html=1;" vertex="1" parent="WIyWlLk6GJQsqaUBKTNV-1">
          <mxGeometry x="440" y="950" width="120" height="60" as="geometry" />
        </mxCell>
        <mxCell id="7XeFvgjpTkcl1byy3WGT-44" style="edgeStyle=orthogonalEdgeStyle;rounded=0;orthogonalLoop=1;jettySize=auto;html=1;exitX=0.5;exitY=1;exitDx=0;exitDy=0;" edge="1" parent="WIyWlLk6GJQsqaUBKTNV-1" source="7XeFvgjpTkcl1byy3WGT-34" target="7XeFvgjpTkcl1byy3WGT-33">
          <mxGeometry relative="1" as="geometry" />
        </mxCell>
        <mxCell id="7XeFvgjpTkcl1byy3WGT-34" value="设备信息组合&lt;span style=&quot;font-size: medium; text-align: start;&quot;&gt;&lt;/span&gt;" style="rounded=0;whiteSpace=wrap;html=1;" vertex="1" parent="WIyWlLk6GJQsqaUBKTNV-1">
          <mxGeometry x="440" y="860" width="120" height="60" as="geometry" />
        </mxCell>
        <mxCell id="7XeFvgjpTkcl1byy3WGT-50" style="edgeStyle=orthogonalEdgeStyle;rounded=0;orthogonalLoop=1;jettySize=auto;html=1;exitX=0.5;exitY=0;exitDx=0;exitDy=0;entryX=0.5;entryY=1;entryDx=0;entryDy=0;" edge="1" parent="WIyWlLk6GJQsqaUBKTNV-1" source="7XeFvgjpTkcl1byy3WGT-35" target="7XeFvgjpTkcl1byy3WGT-31">
          <mxGeometry relative="1" as="geometry" />
        </mxCell>
        <mxCell id="7XeFvgjpTkcl1byy3WGT-35" value="线路矩形输出处理&lt;span style=&quot;font-size: medium; text-align: start;&quot;&gt;&lt;/span&gt;" style="rounded=0;whiteSpace=wrap;html=1;" vertex="1" parent="WIyWlLk6GJQsqaUBKTNV-1">
          <mxGeometry x="600" y="1040" width="120" height="60" as="geometry" />
        </mxCell>
        <mxCell id="7XeFvgjpTkcl1byy3WGT-53" style="edgeStyle=orthogonalEdgeStyle;rounded=0;orthogonalLoop=1;jettySize=auto;html=1;exitX=1;exitY=0.5;exitDx=0;exitDy=0;entryX=0.5;entryY=0;entryDx=0;entryDy=0;" edge="1" parent="WIyWlLk6GJQsqaUBKTNV-1" source="7XeFvgjpTkcl1byy3WGT-36" target="7XeFvgjpTkcl1byy3WGT-39">
          <mxGeometry relative="1" as="geometry" />
        </mxCell>
        <mxCell id="7XeFvgjpTkcl1byy3WGT-36" value="线路标注&lt;span style=&quot;font-size: medium; text-align: start;&quot;&gt;&lt;/span&gt;" style="rounded=0;whiteSpace=wrap;html=1;" vertex="1" parent="WIyWlLk6GJQsqaUBKTNV-1">
          <mxGeometry x="600" y="770" width="120" height="60" as="geometry" />
        </mxCell>
        <mxCell id="7XeFvgjpTkcl1byy3WGT-49" style="edgeStyle=orthogonalEdgeStyle;rounded=0;orthogonalLoop=1;jettySize=auto;html=1;exitX=0.5;exitY=0;exitDx=0;exitDy=0;entryX=0.5;entryY=1;entryDx=0;entryDy=0;" edge="1" parent="WIyWlLk6GJQsqaUBKTNV-1" source="7XeFvgjpTkcl1byy3WGT-37" target="7XeFvgjpTkcl1byy3WGT-35">
          <mxGeometry relative="1" as="geometry" />
        </mxCell>
        <mxCell id="7XeFvgjpTkcl1byy3WGT-37" value="颜色分配&lt;span style=&quot;font-size: medium; text-align: start;&quot;&gt;&lt;/span&gt;" style="rounded=0;whiteSpace=wrap;html=1;" vertex="1" parent="WIyWlLk6GJQsqaUBKTNV-1">
          <mxGeometry x="600" y="1130" width="120" height="60" as="geometry" />
        </mxCell>
        <mxCell id="7XeFvgjpTkcl1byy3WGT-52" style="edgeStyle=orthogonalEdgeStyle;rounded=0;orthogonalLoop=1;jettySize=auto;html=1;exitX=0.5;exitY=0;exitDx=0;exitDy=0;entryX=0.5;entryY=1;entryDx=0;entryDy=0;" edge="1" parent="WIyWlLk6GJQsqaUBKTNV-1" source="7XeFvgjpTkcl1byy3WGT-38" target="7XeFvgjpTkcl1byy3WGT-36">
          <mxGeometry relative="1" as="geometry" />
        </mxCell>
        <mxCell id="7XeFvgjpTkcl1byy3WGT-38" value="文字描述&lt;span style=&quot;font-size: medium; text-align: start;&quot;&gt;&lt;/span&gt;" style="rounded=0;whiteSpace=wrap;html=1;" vertex="1" parent="WIyWlLk6GJQsqaUBKTNV-1">
          <mxGeometry x="600" y="860" width="120" height="60" as="geometry" />
        </mxCell>
        <mxCell id="7XeFvgjpTkcl1byy3WGT-54" style="edgeStyle=orthogonalEdgeStyle;rounded=0;orthogonalLoop=1;jettySize=auto;html=1;exitX=1;exitY=0.5;exitDx=0;exitDy=0;" edge="1" parent="WIyWlLk6GJQsqaUBKTNV-1" source="7XeFvgjpTkcl1byy3WGT-39" target="7XeFvgjpTkcl1byy3WGT-25">
          <mxGeometry relative="1" as="geometry" />
        </mxCell>
        <mxCell id="7XeFvgjpTkcl1byy3WGT-39" value="结果输出&lt;span style=&quot;font-size: medium; text-align: start;&quot;&gt;&lt;/span&gt;" style="rounded=0;whiteSpace=wrap;html=1;" vertex="1" parent="WIyWlLk6GJQsqaUBKTNV-1">
          <mxGeometry x="767" y="950" width="120" height="60" as="geometry" />
        </mxCell>
        <mxCell id="7XeFvgjpTkcl1byy3WGT-41" style="edgeStyle=orthogonalEdgeStyle;rounded=0;orthogonalLoop=1;jettySize=auto;html=1;exitX=1;exitY=0.5;exitDx=0;exitDy=0;entryX=0.033;entryY=0.492;entryDx=0;entryDy=0;entryPerimeter=0;" edge="1" parent="WIyWlLk6GJQsqaUBKTNV-1" source="7XeFvgjpTkcl1byy3WGT-18" target="7XeFvgjpTkcl1byy3WGT-21">
          <mxGeometry relative="1" as="geometry" />
        </mxCell>
        <mxCell id="7XeFvgjpTkcl1byy3WGT-56" value="第二级算法开始" style="rounded=1;whiteSpace=wrap;html=1;" vertex="1" parent="WIyWlLk6GJQsqaUBKTNV-1">
          <mxGeometry x="70" y="1420" width="120" height="60" as="geometry" />
        </mxCell>
        <mxCell id="7XeFvgjpTkcl1byy3WGT-57" value="算法结束" style="rounded=1;whiteSpace=wrap;html=1;" vertex="1" parent="WIyWlLk6GJQsqaUBKTNV-1">
          <mxGeometry x="1000" y="1420" width="120" height="60" as="geometry" />
        </mxCell>
        <mxCell id="7XeFvgjpTkcl1byy3WGT-58" style="edgeStyle=orthogonalEdgeStyle;rounded=0;orthogonalLoop=1;jettySize=auto;html=1;exitX=0.5;exitY=0;exitDx=0;exitDy=0;entryX=0;entryY=0.5;entryDx=0;entryDy=0;" edge="1" parent="WIyWlLk6GJQsqaUBKTNV-1" source="7XeFvgjpTkcl1byy3WGT-59" target="7XeFvgjpTkcl1byy3WGT-61">
          <mxGeometry relative="1" as="geometry" />
        </mxCell>
        <mxCell id="7XeFvgjpTkcl1byy3WGT-59" value="接收输入文件&lt;br&gt;与配置文件" style="shape=parallelogram;perimeter=parallelogramPerimeter;whiteSpace=wrap;html=1;fixedSize=1;" vertex="1" parent="WIyWlLk6GJQsqaUBKTNV-1">
          <mxGeometry x="270" y="1420" width="120" height="60" as="geometry" />
        </mxCell>
        <mxCell id="7XeFvgjpTkcl1byy3WGT-60" style="edgeStyle=orthogonalEdgeStyle;rounded=0;orthogonalLoop=1;jettySize=auto;html=1;exitX=0.5;exitY=1;exitDx=0;exitDy=0;entryX=0.5;entryY=0;entryDx=0;entryDy=0;" edge="1" parent="WIyWlLk6GJQsqaUBKTNV-1" source="7XeFvgjpTkcl1byy3WGT-61" target="7XeFvgjpTkcl1byy3WGT-73">
          <mxGeometry relative="1" as="geometry" />
        </mxCell>
        <mxCell id="7XeFvgjpTkcl1byy3WGT-61" value="二级成图处理&lt;span style=&quot;font-size: medium; text-align: start;&quot;&gt;&lt;/span&gt;" style="rounded=0;whiteSpace=wrap;html=1;" vertex="1" parent="WIyWlLk6GJQsqaUBKTNV-1">
          <mxGeometry x="440" y="1240" width="120" height="60" as="geometry" />
        </mxCell>
        <mxCell id="7XeFvgjpTkcl1byy3WGT-62" style="edgeStyle=orthogonalEdgeStyle;rounded=0;orthogonalLoop=1;jettySize=auto;html=1;exitX=1;exitY=0.5;exitDx=0;exitDy=0;" edge="1" parent="WIyWlLk6GJQsqaUBKTNV-1" source="7XeFvgjpTkcl1byy3WGT-63" target="7XeFvgjpTkcl1byy3WGT-57">
          <mxGeometry relative="1" as="geometry" />
        </mxCell>
        <mxCell id="7XeFvgjpTkcl1byy3WGT-63" value="输出第二级&lt;br&gt;成图JSON" style="shape=parallelogram;perimeter=parallelogramPerimeter;whiteSpace=wrap;html=1;fixedSize=1;" vertex="1" parent="WIyWlLk6GJQsqaUBKTNV-1">
          <mxGeometry x="820" y="1420" width="120" height="60" as="geometry" />
        </mxCell>
        <mxCell id="7XeFvgjpTkcl1byy3WGT-85" style="edgeStyle=orthogonalEdgeStyle;rounded=0;orthogonalLoop=1;jettySize=auto;html=1;exitX=0.5;exitY=1;exitDx=0;exitDy=0;entryX=0.5;entryY=0;entryDx=0;entryDy=0;" edge="1" parent="WIyWlLk6GJQsqaUBKTNV-1" source="7XeFvgjpTkcl1byy3WGT-67" target="7XeFvgjpTkcl1byy3WGT-81">
          <mxGeometry relative="1" as="geometry" />
        </mxCell>
        <mxCell id="7XeFvgjpTkcl1byy3WGT-67" value="锚点设置&lt;span style=&quot;font-size: medium; text-align: start;&quot;&gt;&lt;/span&gt;" style="rounded=0;whiteSpace=wrap;html=1;" vertex="1" parent="WIyWlLk6GJQsqaUBKTNV-1">
          <mxGeometry x="440" y="1420" width="120" height="60" as="geometry" />
        </mxCell>
        <mxCell id="7XeFvgjpTkcl1byy3WGT-72" style="edgeStyle=orthogonalEdgeStyle;rounded=0;orthogonalLoop=1;jettySize=auto;html=1;exitX=0.5;exitY=1;exitDx=0;exitDy=0;" edge="1" parent="WIyWlLk6GJQsqaUBKTNV-1" source="7XeFvgjpTkcl1byy3WGT-73">
          <mxGeometry relative="1" as="geometry">
            <mxPoint x="500" y="1420" as="targetPoint" />
          </mxGeometry>
        </mxCell>
        <mxCell id="7XeFvgjpTkcl1byy3WGT-73" value="对二级线路进行线路矩形输出处理&lt;span style=&quot;font-size: medium; text-align: start;&quot;&gt;&lt;/span&gt;" style="rounded=0;whiteSpace=wrap;html=1;" vertex="1" parent="WIyWlLk6GJQsqaUBKTNV-1">
          <mxGeometry x="440" y="1330" width="120" height="60" as="geometry" />
        </mxCell>
        <mxCell id="7XeFvgjpTkcl1byy3WGT-87" style="edgeStyle=orthogonalEdgeStyle;rounded=0;orthogonalLoop=1;jettySize=auto;html=1;exitX=1;exitY=0.5;exitDx=0;exitDy=0;entryX=0;entryY=0.5;entryDx=0;entryDy=0;" edge="1" parent="WIyWlLk6GJQsqaUBKTNV-1" source="7XeFvgjpTkcl1byy3WGT-77" target="7XeFvgjpTkcl1byy3WGT-83">
          <mxGeometry relative="1" as="geometry" />
        </mxCell>
        <mxCell id="7XeFvgjpTkcl1byy3WGT-77" value="线路标注&lt;span style=&quot;font-size: medium; text-align: start;&quot;&gt;&lt;/span&gt;" style="rounded=0;whiteSpace=wrap;html=1;" vertex="1" parent="WIyWlLk6GJQsqaUBKTNV-1">
          <mxGeometry x="440" y="1600" width="120" height="60" as="geometry" />
        </mxCell>
        <mxCell id="7XeFvgjpTkcl1byy3WGT-86" style="edgeStyle=orthogonalEdgeStyle;rounded=0;orthogonalLoop=1;jettySize=auto;html=1;exitX=0.5;exitY=1;exitDx=0;exitDy=0;entryX=0.5;entryY=0;entryDx=0;entryDy=0;" edge="1" parent="WIyWlLk6GJQsqaUBKTNV-1" source="7XeFvgjpTkcl1byy3WGT-81" target="7XeFvgjpTkcl1byy3WGT-77">
          <mxGeometry relative="1" as="geometry" />
        </mxCell>
        <mxCell id="7XeFvgjpTkcl1byy3WGT-81" value="文字描述&lt;span style=&quot;font-size: medium; text-align: start;&quot;&gt;&lt;/span&gt;" style="rounded=0;whiteSpace=wrap;html=1;" vertex="1" parent="WIyWlLk6GJQsqaUBKTNV-1">
          <mxGeometry x="440" y="1510" width="120" height="60" as="geometry" />
        </mxCell>
        <mxCell id="7XeFvgjpTkcl1byy3WGT-82" style="edgeStyle=orthogonalEdgeStyle;rounded=0;orthogonalLoop=1;jettySize=auto;html=1;exitX=1;exitY=0.5;exitDx=0;exitDy=0;" edge="1" parent="WIyWlLk6GJQsqaUBKTNV-1" source="7XeFvgjpTkcl1byy3WGT-83" target="7XeFvgjpTkcl1byy3WGT-63">
          <mxGeometry relative="1" as="geometry" />
        </mxCell>
        <mxCell id="7XeFvgjpTkcl1byy3WGT-83" value="结果输出&lt;span style=&quot;font-size: medium; text-align: start;&quot;&gt;&lt;/span&gt;" style="rounded=0;whiteSpace=wrap;html=1;" vertex="1" parent="WIyWlLk6GJQsqaUBKTNV-1">
          <mxGeometry x="640" y="1420" width="120" height="60" as="geometry" />
        </mxCell>
        <mxCell id="7XeFvgjpTkcl1byy3WGT-84" style="edgeStyle=orthogonalEdgeStyle;rounded=0;orthogonalLoop=1;jettySize=auto;html=1;exitX=1;exitY=0.5;exitDx=0;exitDy=0;entryX=0.033;entryY=0.492;entryDx=0;entryDy=0;entryPerimeter=0;" edge="1" parent="WIyWlLk6GJQsqaUBKTNV-1" source="7XeFvgjpTkcl1byy3WGT-56" target="7XeFvgjpTkcl1byy3WGT-59">
          <mxGeometry relative="1" as="geometry" />
        </mxCell>
      </root>
    </mxGraphModel>
  </diagram>
</mxfile>
